PathFileType	4	(X/Y/Z)	Walk7.trc
DataRate	CameraRate	NumFrames	NumMarkers	Units	OrigDataRate	OrigDataStartFrame	OrigNumFrames
200.000000	200.000000	4	61	mm	200.000000	812	852
Frame#	Times		LowerBodyModelVer		LFHD		RFHD		RACR1		RUA1		RCAR		LElbow		RFA1		RASI		LACR1		LLFC		RWRU		LUA1		LTH3		LTB1		LMT1		RTH2		LMT5		LTB3		LTB4		LToe		LTB2		LTH2		LTH4		CLAV		RLFC		STRN		LLMAL		RBHD		LTH1		RTH3		LFA1		RBack		C7		LWRU		LPSI		RMT5		RMT1		LBHD		LCAR		RTH4		RCAL		RTH1		RTB2		RToe		RLMAL		LASI		RPSI		SACR		RTB3		LWRR		RTB1		RTB4		RMMAL		LMMAL		RElbowM		RElbow		T10		RWRR		LCAL		LElbowM
			X1	Y1	Z1	X2	Y2	Z2	X3	Y3	Z3	X4	Y4	Z4	X5	Y5	Z5	X6	Y6	Z6	X7	Y7	Z7	X8	Y8	Z8	X9	Y9	Z9	X10	Y10	Z10	X11	Y11	Z11	X12	Y12	Z12	X13	Y13	Z13	X14	Y14	Z14	X15	Y15	Z15	X16	Y16	Z16	X17	Y17	Z17	X18	Y18	Z18	X19	Y19	Z19	X20	Y20	Z20	X21	Y21	Z21	X22	Y22	Z22	X23	Y23	Z23	X24	Y24	Z24	X25	Y25	Z25	X26	Y26	Z26	X27	Y27	Z27	X28	Y28	Z28	X29	Y29	Z29	X30	Y30	Z30	X31	Y31	Z31	X32	Y32	Z32	X33	Y33	Z33	X34	Y34	Z34	X35	Y35	Z35	X36	Y36	Z36	X37	Y37	Z37	X38	Y38	Z38	X39	Y39	Z39	X40	Y40	Z40	X41	Y41	Z41	X42	Y42	Z42	X43	Y43	Z43	X44	Y44	Z44	X45	Y45	Z45	X46	Y46	Z46	X47	Y47	Z47	X48	Y48	Z48	X49	Y49	Z49	X50	Y50	Z50	X51	Y51	Z51	X52	Y52	Z52	X53	Y53	Z53	X54	Y54	Z54	X55	Y55	Z55	X56	Y56	Z56	X57	Y57	Z57	X58	Y58	Z58	X59	Y59	Z59	X60	Y60	Z60	X61	Y61	Z61

812	4.06	9	2014	4	900.57	1561.1	-76.804	894.71	1554.6	21.304	740.95	1385.3	130.96	696.78	1248.2	224.92	701.11	786.99	286.62	672.19	1065.7	-331.17	700.14	951.3	275.27	811.64	973.36	149.63	751.69	1356.7	-228.64	725.18	488.58	-174.82	671.35	847.9	307.3	731.06	1207.8	-301.06	753.53	560.99	-188.36	742.22	334.83	-70.626	805.26	35.973	-55.595	847.2	667.71	186.64	791.56	25.647	-147.01	719.99	165.12	-79.155	727.07	250.59	-76.135	848.53	31.129	-55.228	729.27	254.24	-138.71	809.74	649.4	-190.76	756.53	644.01	-217	818.4	1340.5	-47.458	822.3	483.38	183.47	879.76	1224.6	-36.643	674.15	69.632	-140.13	726.04	1580.7	20.916	763.11	723.67	-245.56	808.9	569.6	188.3	728.17	944.37	-359.3	601.15	1324.5	56.283	663.68	1422.1	-41.205	706	827.52	-387.53	581.07	986.74	-126.53	739.25	51.9	175.45	766.55	50.965	94.184	750.29	1574.9	-112.22	745.64	782.87	-391.24	789.46	654.23	197.12	589.97	115.09	100.45	780.45	737.44	210.91	772.27	305.54	171.74	804.05	40.728	110.26	646.09	132.32	153.54	849.43	979.84	-183.97	565.95	984.15	6.9067	573.51	985.44	-59.814	748.2	218.9	112.18	757.11	826.94	-340.38	844.95	360.36	115.46	790.8	291.61	113.33	680.06	131.9	74.722	682.31	74.061	-56.969	610.72	1072.8	178.99	647.95	1085.4	263.65	598.43	1091.7	-41.281	706.92	845.18	241.18	616.31	30.64	-102.62	661.3	1031.6	-229.3
813	4.065	9	2014	4	905.03	1560.7	-76.858	899.09	1554.2	21.241	745.17	1385	130.7	700.75	1248	224.6	703.88	786.88	286.72	677.9	1065.5	-332.03	703.31	951.13	275.07	815.83	973.43	149.55	756.59	1356.5	-228.77	726.21	488.61	-174.79	674.22	847.88	307.2	735.86	1207.8	-301.59	755.67	560.88	-188.07	742.67	334.78	-70.638	805.3	35.973	-55.632	852.68	668.2	186.27	791.58	25.637	-147.06	720.25	165.13	-79.195	727.48	250.57	-76.169	848.79	31.015	-55.369	729.57	254.25	-138.77	813.09	648.46	-189.71	760.18	643.79	-216.64	822.75	1340.2	-47.511	829.14	483.44	182.94	884.11	1224.1	-36.055	674.2	69.708	-140.04	730.44	1580.4	20.707	768.27	723.3	-245.12	815.13	569.81	187.95	735.26	944.79	-360.17	605.41	1324.3	55.756	668.03	1421.9	-41.628	714.43	827.75	-388.56	585.31	986.58	-126.78	755.78	50.572	176.42	783.46	49.964	95.328	754.8	1574.7	-112.4	754.6	783.58	-392.3	795.09	654.31	196.87	605.13	109.33	100.51	785.37	737.46	210.66	782.75	304.57	171.49	821.13	40.738	111.59	660.63	128.24	153.75	853.98	979.53	-183.89	570.05	984.14	6.5896	577.68	985.36	-60.098	760.74	217.24	112.17	765.93	827.41	-341.04	854.01	360.93	115.04	801.66	291.02	113.06	694.93	128.4	75.068	682.41	74.073	-56.932	614.27	1072.8	178.62	651.53	1085.3	263.3	602.6	1091.6	-41.733	709.84	844.94	241.13	616.35	30.718	-102.54	666.98	1031.2	-230.28
814	4.07	9	2014	4	909.5	1560.3	-76.888	903.47	1553.8	21.2	749.39	1384.7	130.48	704.74	1247.7	224.3	706.68	786.73	286.86	683.62	1065.2	-332.88	706.51	950.93	274.92	820.06	973.46	149.46	761.5	1356.3	-228.86	727.26	488.64	-174.77	677.14	847.82	307.13	740.7	1207.8	-302.11	757.79	560.77	-187.79	743.15	334.72	-70.655	805.34	35.974	-55.669	858.1	668.61	185.88	791.6	25.626	-147.1	720.52	165.13	-79.237	727.92	250.55	-76.211	849.07	30.894	-55.51	729.89	254.27	-138.83	816.45	647.48	-188.63	763.86	643.56	-216.26	827.09	1339.8	-47.522	835.87	483.43	182.37	888.43	1223.5	-35.437	674.25	69.79	-139.94	734.83	1580.1	20.523	773.51	722.88	-244.66	821.27	569.95	187.58	742.34	945.17	-361.03	609.67	1324.1	55.256	672.39	1421.7	-42.03	722.86	827.96	-389.56	589.53	986.38	-126.99	772.41	49.333	177.51	800.5	49.046	96.606	759.31	1574.4	-112.56	763.54	784.26	-393.32	800.67	654.32	196.63	620.54	103.6	100.65	790.28	737.41	210.42	793.25	303.58	171.23	838.3	40.851	113.08	675.34	124.17	154.04	858.55	979.24	-183.81	574.14	984.06	6.3214	581.84	985.22	-60.333	773.35	215.59	112.19	774.72	827.91	-341.65	863.01	361.47	114.59	812.51	290.4	112.81	709.99	124.93	75.491	682.52	74.085	-56.887	617.83	1072.7	178.28	655.12	1085.2	262.99	606.76	1091.4	-42.152	712.8	844.65	241.1	616.4	30.797	-102.45	672.69	1030.7	-231.25
815	4.075	9	2014	4	913.97	1559.9	-76.895	907.85	1553.4	21.183	753.62	1384.4	130.3	708.75	1247.4	224.02	709.54	786.55	287.03	689.35	1064.9	-333.71	709.74	950.68	274.79	824.32	973.42	149.37	766.43	1356	-228.92	728.33	488.68	-174.73	680.09	847.71	307.1	745.58	1207.7	-302.62	759.88	560.67	-187.52	743.66	334.67	-70.674	805.38	35.974	-55.705	863.48	668.92	185.46	791.62	25.612	-147.15	720.81	165.13	-79.279	728.37	250.52	-76.259	849.34	30.768	-55.649	730.21	254.28	-138.89	819.8	646.47	-187.53	767.55	643.31	-215.87	831.44	1339.4	-47.492	842.46	483.36	181.78	892.72	1222.9	-34.792	674.31	69.877	-139.85	739.24	1579.8	20.365	778.81	722.43	-244.17	827.32	570.02	187.18	749.43	945.53	-361.87	613.93	1323.9	54.786	676.77	1421.4	-42.405	731.27	828.15	-390.52	593.74	986.14	-127.14	789.15	48.197	178.69	817.66	48.23	97.99	763.83	1574.1	-112.69	772.47	784.93	-394.28	806.19	654.27	196.38	636.19	97.921	100.85	795.17	737.31	210.18	803.76	302.59	170.98	855.56	41.089	114.69	690.24	120.16	154.4	863.13	978.96	-183.74	578.22	983.92	6.106	585.98	985.03	-60.516	786.04	213.97	112.26	783.46	828.45	-342.21	871.93	362.01	114.13	823.37	289.79	112.58	725.23	121.5	75.987	682.64	74.098	-56.837	621.41	1072.6	177.99	658.74	1085.1	262.72	610.91	1091.2	-42.537	715.8	844.32	241.12	616.44	30.878	-102.37	678.42	1030.1	-232.22
